<?xml version="1.0" encoding="UTF-8" standalone="no"?><svg xmlns="http://www.w3.org/2000/svg" xmlns:xlink="http://www.w3.org/1999/xlink" contentScriptType="application/ecmascript" contentStyleType="text/css" height="439px" preserveAspectRatio="none" style="width:1249px;height:439px;" version="1.1" viewBox="0 0 1249 439" width="1249px" zoomAndPan="magnify">
    <defs />
    <g>
        <polygon fill="#FFFFFF" points="462.5,116.5703,462.5,116.6404,464.5,116.4322,466.5,116.6347,468.5,116.7035,470.5,116.3325,472.5,116.5703,472.4223,116.5703,472.0735,126.6875,472.1165,136.8047,472.4318,146.9219,471.8086,157.0391,473.0536,167.1563,471.8697,177.2734,472.3022,187.3906,472.9319,197.5078,472.4142,207.625,472.5682,217.7422,472.4681,227.8594,472.6785,237.9766,472.7391,248.0938,473.0857,258.2109,473.1711,268.3281,473.1793,278.4453,472.7546,288.5625,472.9636,298.6797,473.2022,308.7969,471.7788,318.9141,472.5,329.0313,472.5,329.2574,470.5,328.9324,468.5,329.2092,466.5,328.8662,464.5,329.0084,462.5,329.0313,463.2416,329.0313,462.4513,318.9141,462.6053,308.7969,462.8386,298.6797,462.9162,288.5625,462.4961,278.4453,462.7872,268.3281,461.9276,258.2109,462.7844,248.0938,463.0482,237.9766,462.9445,227.8594,463.113,217.7422,462.0169,207.625,461.8478,197.5078,461.8786,187.3906,462.4411,177.2734,462.3035,167.1563,463.1814,157.0391,462.3253,146.9219,462.1569,136.8047,462.7283,126.6875,462.5,116.5703" style="stroke: #383838; stroke-width: 1.0;" />
        <polygon fill="#FFFFFF" points="734.5,207.625,734.5,207.6951,736.5,207.4869,738.5,207.6894,740.5,207.7582,742.5,207.3872,744.5,207.625,744.4223,207.625,744.0735,217.7422,744.1165,227.8594,744.4318,237.9766,743.8086,248.0938,745.0536,258.2109,743.8697,268.3281,744.3022,278.4453,744.9319,288.5625,744.5,298.6797,744.5,298.6511,742.5,298.7024,740.5,298.669,738.5,298.7392,736.5,298.7594,734.5,298.6797,735.0857,298.6797,735.1711,288.5625,735.1793,278.4453,734.7546,268.3281,734.9636,258.2109,735.2022,248.0938,733.7788,237.9766,735.1785,227.8594,734.2035,217.7422,734.5,207.625" style="stroke: #383838; stroke-width: 1.0;" />
        <path d="M25,84.2188 L25.2802,84.2188 L24.4476,94.3269 L25.2577,104.4351 L25.5329,114.5433 L24.0488,124.6514 L24.8964,134.7596 L24.4313,144.8678 L24.4887,154.976 L24.9091,165.0841 L24.0782,175.1923 L25.7382,185.3005 L24.1596,195.4087 L24.7363,205.5168 L25.5759,215.625 L24.8856,225.7332 L25.091,235.8413 L24.9574,245.9495 L25.238,256.0577 L25.3188,266.1659 L25.7809,276.274 L25.8947,286.3822 L25.9057,296.4904 L25.3395,306.5986 L25.6181,316.7067 L25.9363,326.8149 L24.0384,336.9231 L25,347.0313 " fill="none" style="stroke: #383838; stroke-width: 1.0; stroke-dasharray: 5.0,5.0;" />
        <path d="M467,84.2188 L467.2802,84.2188 L466.4476,94.3269 L467.2577,104.4351 L467.5329,114.5433 L466.0488,124.6514 L466.8964,134.7596 L466.4313,144.8678 L466.4887,154.976 L466.9091,165.0841 L466.0782,175.1923 L467.7382,185.3005 L466.1596,195.4087 L466.7363,205.5168 L467.5759,215.625 L466.8856,225.7332 L467.091,235.8413 L466.9574,245.9495 L467.238,256.0577 L467.3188,266.1659 L467.7809,276.274 L467.8947,286.3822 L467.9057,296.4904 L467.3395,306.5986 L467.6181,316.7067 L467.9363,326.8149 L466.0384,336.9231 L467,347.0313 " fill="none" style="stroke: #383838; stroke-width: 1.0; stroke-dasharray: 5.0,5.0;" />
        <path d="M739,84.2188 L739.2802,84.2188 L738.4476,94.3269 L739.2577,104.4351 L739.5329,114.5433 L738.0488,124.6514 L738.8964,134.7596 L738.4313,144.8678 L738.4887,154.976 L738.9091,165.0841 L738.0782,175.1923 L739.7382,185.3005 L738.1596,195.4087 L738.7363,205.5168 L739.5759,215.625 L738.8856,225.7332 L739.091,235.8413 L738.9574,245.9495 L739.238,256.0577 L739.3188,266.1659 L739.7809,276.274 L739.8947,286.3822 L739.9057,296.4904 L739.3395,306.5986 L739.6181,316.7067 L739.9363,326.8149 L738.0384,336.9231 L739,347.0313 " fill="none" style="stroke: #383838; stroke-width: 1.0; stroke-dasharray: 5.0,5.0;" />
        <path d="M1011.5,84.2188 L1011.7802,84.2188 L1010.9476,94.3269 L1011.7577,104.4351 L1012.0329,114.5433 L1010.5488,124.6514 L1011.3964,134.7596 L1010.9313,144.8678 L1010.9887,154.976 L1011.4091,165.0841 L1010.5782,175.1923 L1012.2382,185.3005 L1010.6596,195.4087 L1011.2363,205.5168 L1012.0759,215.625 L1011.3856,225.7332 L1011.591,235.8413 L1011.4574,245.9495 L1011.738,256.0577 L1011.8188,266.1659 L1012.2809,276.274 L1012.3947,286.3822 L1012.4057,296.4904 L1011.8395,306.5986 L1012.1181,316.7067 L1012.4363,326.8149 L1010.5384,336.9231 L1011.5,347.0313 " fill="none" style="stroke: #383838; stroke-width: 1.0; stroke-dasharray: 5.0,5.0;" />
        <path d="M1170.5,84.2188 L1170.7802,84.2188 L1169.9476,94.3269 L1170.7577,104.4351 L1171.0329,114.5433 L1169.5488,124.6514 L1170.3964,134.7596 L1169.9313,144.8678 L1169.9887,154.976 L1170.4091,165.0841 L1169.5782,175.1923 L1171.2382,185.3005 L1169.6596,195.4087 L1170.2363,205.5168 L1171.0759,215.625 L1170.3856,225.7332 L1170.591,235.8413 L1170.4574,245.9495 L1170.738,256.0577 L1170.8188,266.1659 L1171.2809,276.274 L1171.3947,286.3822 L1171.4057,296.4904 L1170.8395,306.5986 L1171.1181,316.7067 L1171.4363,326.8149 L1169.5384,336.9231 L1170.5,347.0313 " fill="none" style="stroke: #383838; stroke-width: 1.0; stroke-dasharray: 5.0,5.0;" /><text fill="#000000" font-family="FG Virgil" font-size="14" lengthAdjust="spacingAndGlyphs" textLength="29" x="8" y="81.1426">RRH</text>
        <polygon fill="#F8F8F8" points="33.5442,15.5553,32.3715,17.1576,30.9845,19.5044,29.0008,21.086,26.9163,21.9509,25.2542,22.026,23.118,20.9443,21.1023,20.2377,19.5724,18.803,18.7699,17.1605,18.2939,15.8527,17.8277,14.1444,17.0709,12.6744,17.6525,11.2392,18.162,9.667,20.074,8.4235,21.4192,6.8102,23.0843,6.2744,25.0637,5.813,27.6021,6.0872,28.9924,6.7429,30.6089,7.0401,32.5743,9.0537,33.2595,11.1795,33.5571,12.63,33.22,15.0202" style="stroke: #383838; stroke-width: 2.0;" />
        <path d="M25.5,21.6094 L25.6868,21.6094 L25.1317,27.0094 L25.6718,32.4094 L25.8553,37.8094 L24.8659,43.2094 L25.5,48.6094 M12.5,29.6094 L12.5,29.5403 L17.7,29.2303 L22.9,29.2685 L28.1,29.5488 L33.3,28.9948 L38.5,29.6094 M25.5,48.6094 L25.8719,48.9317 L22.4766,51.2425 L20.1672,54.4942 L17.9901,57.8608 L15.0424,60.5594 L12.5,63.6094 M25.5,48.6094 L25.5458,48.6491 L28.0785,51.5908 L30.8199,54.7133 L33.4606,57.7486 L36.2934,60.9503 L38.5,63.6094 " fill="none" style="stroke: #383838; stroke-width: 2.0;" /><text fill="#000000" font-family="FG Virgil" font-size="14" lengthAdjust="spacingAndGlyphs" textLength="29" x="8" y="360.5645">RRH</text>
        <polygon fill="#F8F8F8" points="33.5442,375.5865,32.3715,377.1888,30.9845,379.5357,29.0008,381.1173,26.9163,381.9822,25.2542,382.0572,23.118,380.9756,21.1023,380.2689,19.5724,378.8342,18.7699,377.1917,18.2939,375.8839,17.8277,374.1757,17.0709,372.7057,17.6525,371.2704,18.162,369.6982,20.074,368.4548,21.4192,366.8414,23.0843,366.3057,25.0637,365.8443,27.6021,366.1184,28.9924,366.7741,30.6089,367.0713,32.5743,369.085,33.2595,371.2108,33.5571,372.6612,33.22,375.0514" style="stroke: #383838; stroke-width: 2.0;" />
        <path d="M25.5,381.6406 L25.6868,381.6406 L25.1317,387.0406 L25.6718,392.4406 L25.8553,397.8406 L24.8659,403.2406 L25.5,408.6406 M12.5,389.6406 L12.5,389.5715 L17.7,389.2615 L22.9,389.2997 L28.1,389.58 L33.3,389.0261 L38.5,389.6406 M25.5,408.6406 L25.8719,408.9629 L22.4766,411.2737 L20.1672,414.5255 L17.9901,417.8921 L15.0424,420.5907 L12.5,423.6406 M25.5,408.6406 L25.5458,408.6804 L28.0785,411.622 L30.8199,414.7446 L33.4606,417.7798 L36.2934,420.9816 L38.5,423.6406 " fill="none" style="stroke: #383838; stroke-width: 2.0;" />
        <polygon fill="#F8F8F8" points="406,34,406,34.2102,416.25,33.5857,426.5,34.1933,436.75,34.3997,447,33.2866,457.25,33.9223,467.5,33.5735,477.75,33.6165,488,33.9318,498.25,33.3086,508.5,34.5536,518.75,33.3697,529,34,528.8022,34,529.4319,43.8438,528.9142,53.6875,529.0682,63.5313,528.9681,73.375,529,83.2188,529,83.3973,518.75,83.4579,508.5,83.8044,498.25,83.8898,488,83.898,477.75,83.4734,467.5,83.6823,457.25,83.921,447,82.4976,436.75,83.8973,426.5,82.9222,416.25,83.7526,406,83.2188,405.505,83.2188,405.9315,73.375,406.7416,63.5313,405.9513,53.6875,406.1053,43.8438,406,34" style="stroke: #383838; stroke-width: 1.5;" /><text fill="#000000" font-family="FG Virgil" font-size="14" font-style="italic" lengthAdjust="spacingAndGlyphs" textLength="95" x="420" y="55">«presentation»</text><text fill="#000000" font-family="FG Virgil" font-size="14" lengthAdjust="spacingAndGlyphs" textLength="109" x="413" y="72.6094">AddTipoEquipaUI</text>
        <polygon fill="#F8F8F8" points="406,346.0313,406,346.2414,416.25,345.6169,426.5,346.2245,436.75,346.4309,447,345.3179,457.25,345.9535,467.5,345.6048,477.75,345.6478,488,345.9631,498.25,345.3399,508.5,346.5849,518.75,345.401,529,346.0313,528.8022,346.0313,529.4319,355.875,528.9142,365.7188,529.0682,375.5625,528.9681,385.4063,529,395.25,529,395.4285,518.75,395.4891,508.5,395.8357,498.25,395.9211,488,395.9293,477.75,395.5046,467.5,395.7136,457.25,395.9522,447,394.5288,436.75,395.9285,426.5,394.9535,416.25,395.7838,406,395.25,405.505,395.25,405.9315,385.4063,406.7416,375.5625,405.9513,365.7188,406.1053,355.875,406,346.0313" style="stroke: #383838; stroke-width: 1.5;" /><text fill="#000000" font-family="FG Virgil" font-size="14" font-style="italic" lengthAdjust="spacingAndGlyphs" textLength="95" x="420" y="367.0313">«presentation»</text><text fill="#000000" font-family="FG Virgil" font-size="14" lengthAdjust="spacingAndGlyphs" textLength="109" x="413" y="384.6406">AddTipoEquipaUI</text><text fill="#000000" font-family="FG Virgil" font-size="14" font-style="italic" lengthAdjust="spacingAndGlyphs" textLength="84" x="694.5" y="63">«application»</text><text fill="#000000" font-family="FG Virgil" font-size="14" lengthAdjust="spacingAndGlyphs" textLength="159" x="657" y="80.6094">AddTipoEquipaController</text>
        <polygon fill="#F8F8F8" points="751.5663,35.9189,749.8073,38.3223,747.7268,41.8426,744.7512,44.215,741.6244,45.5123,739.1313,45.6249,735.9269,44.0024,732.9035,42.9425,730.6086,40.7904,729.4048,38.3267,728.6909,36.3649,727.9915,33.8026,726.8564,31.5976,727.7287,29.4447,728.4929,27.0864,731.3611,25.2212,733.3789,22.8012,735.8764,21.9976,738.8456,21.3055,742.6532,21.7167,744.7386,22.7002,747.1633,23.146,750.1115,26.1665,751.1392,29.3552,751.5857,31.5309,751.08,35.1162" style="stroke: #383838; stroke-width: 2.0;" />
        <polygon fill="#383838" points="735.5,21,735.5449,21.0538,736.6116,19.8939,737.9412,19.0495,739.1853,18.1023,740.1478,16.8173,741.5,16,741.4759,15.9904,740.968,16.9472,740.5813,17.9525,740.2789,18.9916,739.686,19.9144,739.5,21,739.6713,21.0685,739.7049,21.922,740.2388,22.9755,740.8337,24.0535,741.0735,24.9894,741.5,26,741.5146,26.0175,740.2932,24.9918,739.1381,24.0457,737.951,23.0612,736.825,22.15,735.5,21" style="stroke: #383838; stroke-width: 1.0;" /><text fill="#000000" font-family="FG Virgil" font-size="14" font-style="italic" lengthAdjust="spacingAndGlyphs" textLength="84" x="694.5" y="360.0313">«application»</text><text fill="#000000" font-family="FG Virgil" font-size="14" lengthAdjust="spacingAndGlyphs" textLength="159" x="657" y="377.6406">AddTipoEquipaController</text>
        <polygon fill="#F8F8F8" points="751.5663,400.1689,749.8073,402.5723,747.7268,406.0926,744.7512,408.465,741.6244,409.7623,739.1313,409.8749,735.9269,408.2524,732.9035,407.1925,730.6086,405.0404,729.4048,402.5767,728.6909,400.6149,727.9915,398.0526,726.8564,395.8476,727.7287,393.6947,728.4929,391.3364,731.3611,389.4712,733.3789,387.0512,735.8764,386.2476,738.8456,385.5555,742.6532,385.9667,744.7386,386.9502,747.1633,387.396,750.1115,390.4165,751.1392,393.6052,751.5857,395.7809,751.08,399.3662" style="stroke: #383838; stroke-width: 2.0;" />
        <polygon fill="#383838" points="735.5,385.25,735.5449,385.3038,736.6116,384.1439,737.9412,383.2995,739.1853,382.3523,740.1478,381.0673,741.5,380.25,741.4759,380.2404,740.968,381.1972,740.5813,382.2025,740.2789,383.2416,739.686,384.1644,739.5,385.25,739.6713,385.3185,739.7049,386.172,740.2388,387.2255,740.8337,388.3035,741.0735,389.2394,741.5,390.25,741.5146,390.2675,740.2932,389.2418,739.1381,388.2957,737.951,387.3112,736.825,386.4,735.5,385.25" style="stroke: #383838; stroke-width: 1.0;" />
        <polygon fill="#F8F8F8" points="935.5,34,935.5,34.2102,945.6333,33.5857,955.7667,34.1933,965.9,34.3997,976.0333,33.2866,986.1667,33.9223,996.3,33.5735,1006.4333,33.6165,1016.5667,33.9318,1026.7,33.3086,1036.8333,34.5536,1046.9667,33.3697,1057.1,33.8022,1067.2333,34.4319,1077.3667,33.9142,1087.5,34,1087.5682,34,1087.4681,43.8438,1087.6785,53.6875,1087.7391,63.5313,1088.0857,73.375,1087.5,83.2188,1087.5,83.8898,1077.3667,83.898,1067.2333,83.4734,1057.1,83.6823,1046.9667,83.921,1036.8333,82.4976,1026.7,83.8973,1016.5667,82.9222,1006.4333,83.7526,996.3,82.7237,986.1667,83.1503,976.0333,83.9604,965.9,83.17,955.7667,83.3241,945.6333,83.5574,935.5,83.2188,935.9162,83.2188,935.4961,73.375,935.7872,63.5313,934.9276,53.6875,935.7844,43.8438,935.5,34" style="stroke: #383838; stroke-width: 1.5;" /><text fill="#000000" font-family="FG Virgil" font-size="14" font-style="italic" lengthAdjust="spacingAndGlyphs" textLength="62" x="980.5" y="55">«domain»</text><text fill="#000000" font-family="FG Virgil" font-size="14" lengthAdjust="spacingAndGlyphs" textLength="138" x="942.5" y="72.6094">tipoEquipa:tipoEquipa</text>
        <polygon fill="#F8F8F8" points="935.5,346.0313,935.5,346.2414,945.6333,345.6169,955.7667,346.2245,965.9,346.4309,976.0333,345.3179,986.1667,345.9535,996.3,345.6048,1006.4333,345.6478,1016.5667,345.9631,1026.7,345.3399,1036.8333,346.5849,1046.9667,345.401,1057.1,345.8335,1067.2333,346.4632,1077.3667,345.9455,1087.5,346.0313,1087.5682,346.0313,1087.4681,355.875,1087.6785,365.7188,1087.7391,375.5625,1088.0857,385.4063,1087.5,395.25,1087.5,395.9211,1077.3667,395.9293,1067.2333,395.5046,1057.1,395.7136,1046.9667,395.9522,1036.8333,394.5288,1026.7,395.9285,1016.5667,394.9535,1006.4333,395.7838,996.3,394.755,986.1667,395.1815,976.0333,395.9916,965.9,395.2013,955.7667,395.3553,945.6333,395.5886,935.5,395.25,935.9162,395.25,935.4961,385.4063,935.7872,375.5625,934.9276,365.7188,935.7844,355.875,935.5,346.0313" style="stroke: #383838; stroke-width: 1.5;" /><text fill="#000000" font-family="FG Virgil" font-size="14" font-style="italic" lengthAdjust="spacingAndGlyphs" textLength="62" x="980.5" y="367.0313">«domain»</text><text fill="#000000" font-family="FG Virgil" font-size="14" lengthAdjust="spacingAndGlyphs" textLength="138" x="942.5" y="384.6406">tipoEquipa:tipoEquipa</text><text fill="#000000" font-family="FG Virgil" font-size="14" font-style="italic" lengthAdjust="spacingAndGlyphs" textLength="79" x="1128" y="63">«repository»</text><text fill="#000000" font-family="FG Virgil" font-size="14" lengthAdjust="spacingAndGlyphs" textLength="140" x="1097.5" y="80.6094">TipoEquipaRepository</text>
        <path d="M1152.5,13 C1152.5,3 1170.5,3 1170.5,3 C1170.5,3 1188.5,3 1188.5,13 L1188.5,39 C1188.5,49 1170.5,49 1170.5,49 C1170.5,49 1152.5,49 1152.5,39 L1152.5,13 " fill="#F8F8F8" style="stroke: #000000; stroke-width: 1.5;" />
        <path d="M1152.5,13 C1152.5,23 1170.5,23 1170.5,23 C1170.5,23 1188.5,23 1188.5,13 " fill="none" style="stroke: #000000; stroke-width: 1.5;" /><text fill="#000000" font-family="FG Virgil" font-size="14" font-style="italic" lengthAdjust="spacingAndGlyphs" textLength="79" x="1128" y="360.0313">«repository»</text><text fill="#000000" font-family="FG Virgil" font-size="14" lengthAdjust="spacingAndGlyphs" textLength="140" x="1097.5" y="377.6406">TipoEquipaRepository</text>
        <path d="M1152.5,391.25 C1152.5,381.25 1170.5,381.25 1170.5,381.25 C1170.5,381.25 1188.5,381.25 1188.5,391.25 L1188.5,417.25 C1188.5,427.25 1170.5,427.25 1170.5,427.25 C1170.5,427.25 1152.5,427.25 1152.5,417.25 L1152.5,391.25 " fill="#F8F8F8" style="stroke: #000000; stroke-width: 1.5;" />
        <path d="M1152.5,391.25 C1152.5,401.25 1170.5,401.25 1170.5,401.25 C1170.5,401.25 1188.5,401.25 1188.5,391.25 " fill="none" style="stroke: #000000; stroke-width: 1.5;" />
        <polygon fill="#FFFFFF" points="462.5,116.5703,462.5,116.6404,464.5,116.4322,466.5,116.6347,468.5,116.7035,470.5,116.3325,472.5,116.5703,472.4223,116.5703,472.0735,126.6875,472.1165,136.8047,472.4318,146.9219,471.8086,157.0391,473.0536,167.1563,471.8697,177.2734,472.3022,187.3906,472.9319,197.5078,472.4142,207.625,472.5682,217.7422,472.4681,227.8594,472.6785,237.9766,472.7391,248.0938,473.0857,258.2109,473.1711,268.3281,473.1793,278.4453,472.7546,288.5625,472.9636,298.6797,473.2022,308.7969,471.7788,318.9141,472.5,329.0313,472.5,329.2574,470.5,328.9324,468.5,329.2092,466.5,328.8662,464.5,329.0084,462.5,329.0313,463.2416,329.0313,462.4513,318.9141,462.6053,308.7969,462.8386,298.6797,462.9162,288.5625,462.4961,278.4453,462.7872,268.3281,461.9276,258.2109,462.7844,248.0938,463.0482,237.9766,462.9445,227.8594,463.113,217.7422,462.0169,207.625,461.8478,197.5078,461.8786,187.3906,462.4411,177.2734,462.3035,167.1563,463.1814,157.0391,462.3253,146.9219,462.1569,136.8047,462.7283,126.6875,462.5,116.5703" style="stroke: #383838; stroke-width: 1.0;" />
        <polygon fill="#FFFFFF" points="734.5,207.625,734.5,207.6951,736.5,207.4869,738.5,207.6894,740.5,207.7582,742.5,207.3872,744.5,207.625,744.4223,207.625,744.0735,217.7422,744.1165,227.8594,744.4318,237.9766,743.8086,248.0938,745.0536,258.2109,743.8697,268.3281,744.3022,278.4453,744.9319,288.5625,744.5,298.6797,744.5,298.6511,742.5,298.7024,740.5,298.669,738.5,298.7392,736.5,298.7594,734.5,298.6797,735.0857,298.6797,735.1711,288.5625,735.1793,278.4453,734.7546,268.3281,734.9636,258.2109,735.2022,248.0938,733.7788,237.9766,735.1785,227.8594,734.2035,217.7422,734.5,207.625" style="stroke: #383838; stroke-width: 1.0;" />
        <polygon fill="#383838" points="450.5,112.5703,450.526,112.6354,452.4487,113.2421,454.5239,114.2301,456.5495,115.094,458.4117,115.5495,460.5,116.5703,460.4904,116.5463,458.4472,117.2383,456.4525,118.0516,454.4916,118.9492,452.4144,119.5563,450.5,120.5703,450.6305,120.7008,451.1514,119.6218,452.0534,118.9237,453.0018,118.2721,453.6798,117.3501,454.5,116.5703,454.5161,116.5864,453.6925,115.7628,452.9421,115.0124,452.1564,114.2267,451.438,113.5084,450.5,112.5703" style="stroke: #383838; stroke-width: 1.0;" />
        <path d="M3,116.5703 L3,116.8506 L13.0778,116.0179 L23.1556,116.828 L33.2333,117.1032 L43.3111,115.6191 L53.3889,116.4667 L63.4667,116.0017 L73.5444,116.059 L83.6222,116.4794 L93.7,115.6485 L103.7778,117.3085 L113.8556,115.7299 L123.9333,116.3066 L134.0111,117.1462 L144.0889,116.4559 L154.1667,116.6613 L164.2444,116.5277 L174.3222,116.8083 L184.4,116.8892 L194.4778,117.3512 L204.5556,117.4651 L214.6333,117.476 L224.7111,116.9098 L234.7889,117.1884 L244.8667,117.5066 L254.9444,115.6087 L265.0222,117.475 L275.1,116.175 L285.1778,117.2821 L295.2556,115.9103 L305.3333,116.479 L315.4111,117.5591 L325.4889,116.5053 L335.5667,116.7107 L345.6444,117.0218 L355.7222,117.1253 L365.8,116.5651 L375.8778,116.9533 L385.9556,115.8071 L396.0333,116.9495 L406.1111,117.3012 L416.1889,117.163 L426.2667,117.3877 L436.3444,115.9262 L446.4222,115.7007 L456.5,116.5703 " fill="none" style="stroke: #383838; stroke-width: 1.0;" /><text fill="#000000" font-family="FG Virgil" font-size="13" lengthAdjust="spacingAndGlyphs" textLength="54" x="10" y="111.7139">doShow()</text>
        <polygon fill="#383838" points="36.5,142.9219,36.526,142.9869,34.4487,143.5936,32.5239,144.5817,30.5495,145.4456,28.4117,145.9011,26.5,146.9219,26.4904,146.8978,28.4472,147.5899,30.4525,148.4032,32.4916,149.3008,34.4144,149.9079,36.5,150.9219,36.6305,151.0524,35.5514,149.9733,34.8534,149.2753,34.2018,148.6237,33.2798,147.7017,32.5,146.9219,32.5161,146.938,33.2925,146.1143,34.1421,145.364,34.9564,144.5782,35.838,143.8599,36.5,142.9219" style="stroke: #383838; stroke-width: 1.0;" />
        <path d="M30.5,146.9219 L30.5,147.2021 L40.5233,146.3694 L50.5465,147.1796 L60.5698,147.4548 L70.593,145.9707 L80.6163,146.8183 L90.6395,146.3532 L100.6628,146.4105 L110.686,146.831 L120.7093,146 L130.7326,147.6601 L140.7558,146.0815 L150.7791,146.6582 L160.8023,147.4978 L170.8256,146.8075 L180.8488,147.0129 L190.8721,146.8793 L200.8953,147.1599 L210.9186,147.2407 L220.9419,147.7028 L230.9651,147.8166 L240.9884,147.8276 L251.0116,147.2614 L261.0349,147.54 L271.0581,147.8582 L281.0814,145.9603 L291.1047,147.8266 L301.1279,146.5265 L311.1512,147.6336 L321.1744,146.2618 L331.1977,146.8305 L341.2209,147.9107 L351.2442,146.8569 L361.2674,147.0623 L371.2907,147.3734 L381.314,147.4769 L391.3372,146.9167 L401.3605,147.3048 L411.3837,146.1587 L421.407,147.3011 L431.4302,147.6528 L441.4535,147.5146 L451.4767,147.7392 L461.5,146.9219 " fill="none" style="stroke: #383838; stroke-width: 1.0; stroke-dasharray: 2.0,2.0;" /><text fill="#000000" font-family="FG Virgil" font-size="13" lengthAdjust="spacingAndGlyphs" textLength="413" x="42.5" y="142.0654">Pede ao utilizador que insira a cor ,o código alfanumérico e a descrição</text>
        <polygon fill="#383838" points="450.5,173.2734,450.526,173.3385,452.4487,173.9452,454.5239,174.9333,456.5495,175.7971,458.4117,176.2526,460.5,177.2734,460.4904,177.2494,458.4472,177.9414,456.4525,178.7547,454.4916,179.6523,452.4144,180.2595,450.5,181.2734,450.6305,181.4039,451.1514,180.3249,452.0534,179.6268,453.0018,178.9752,453.6798,178.0532,454.5,177.2734,454.5161,177.2895,453.6925,176.4659,452.9421,175.7155,452.1564,174.9298,451.438,174.2115,450.5,173.2734" style="stroke: #383838; stroke-width: 1.0;" />
        <path d="M25.5,177.2734 L25.5,177.5537 L35.5233,176.721 L45.5465,177.5312 L55.5698,177.8063 L65.593,176.3222 L75.6163,177.1698 L85.6395,176.7048 L95.6628,176.7621 L105.686,177.1826 L115.7093,176.3516 L125.7326,178.0116 L135.7558,176.4331 L145.7791,177.0097 L155.8023,177.8494 L165.8256,177.1591 L175.8488,177.3644 L185.8721,177.2308 L195.8953,177.5115 L205.9186,177.5923 L215.9419,178.0544 L225.9651,178.1682 L235.9884,178.1791 L246.0116,177.6129 L256.0349,177.8916 L266.0581,178.2097 L276.0814,176.3119 L286.1047,178.1781 L296.1279,176.8781 L306.1512,177.9852 L316.1744,176.6134 L326.1977,177.1821 L336.2209,178.2622 L346.2442,177.2085 L356.2674,177.4138 L366.2907,177.7249 L376.314,177.8284 L386.3372,177.2682 L396.3605,177.6564 L406.3837,176.5102 L416.407,177.6526 L426.4302,178.0044 L436.4535,177.8661 L446.4767,178.0908 L456.5,177.2734 " fill="none" style="stroke: #383838; stroke-width: 1.0; stroke-dasharray: 2.0,2.0;" /><text fill="#000000" font-family="FG Virgil" font-size="13" lengthAdjust="spacingAndGlyphs" textLength="92" x="32.5" y="172.417">Insere os dados</text>
        <polygon fill="#383838" points="722.5,203.625,722.526,203.69,724.4487,204.2968,726.5239,205.2848,728.5495,206.1487,730.4117,206.6042,732.5,207.625,732.4904,207.6009,730.4472,208.293,728.4525,209.1063,726.4916,210.0039,724.4144,210.611,722.5,211.625,722.6305,211.7555,723.1514,210.6764,724.0534,209.9784,725.0018,209.3268,725.6798,208.4048,726.5,207.625,726.5161,207.6411,725.6925,206.8175,724.9421,206.0671,724.1564,205.2814,723.438,204.563,722.5,203.625" style="stroke: #383838; stroke-width: 1.0;" />
        <path d="M472.5,207.625 L472.5,207.9052 L482.3462,207.0726 L492.1923,207.8827 L502.0385,208.1579 L511.8846,206.6738 L521.7308,207.5214 L531.5769,207.0563 L541.4231,207.1137 L551.2692,207.5341 L561.1154,206.7032 L570.9615,208.3632 L580.8077,206.7846 L590.6538,207.3613 L600.5,208.2009 L610.3462,207.5106 L620.1923,207.716 L630.0385,207.5824 L639.8846,207.863 L649.7308,207.9438 L659.5769,208.4059 L669.4231,208.5197 L679.2692,208.5307 L689.1154,207.9645 L698.9615,208.2431 L708.8077,208.5613 L718.6538,206.6634 L728.5,207.625 " fill="none" style="stroke: #383838; stroke-width: 1.0;" /><text fill="#000000" font-family="FG Virgil" font-size="13" lengthAdjust="spacingAndGlyphs" textLength="243" x="479.5" y="202.7686">addTipoEquipa(cor,codAlfanum,descricao)</text>
        <polygon fill="#383838" points="999.5,233.9766,999.526,234.0416,1001.4487,234.6483,1003.5239,235.6364,1005.5495,236.5003,1007.4117,236.9558,1009.5,237.9766,1009.4904,237.9525,1007.4472,238.6446,1005.4525,239.4579,1003.4916,240.3555,1001.4144,240.9626,999.5,241.9766,999.6305,242.1071,1000.1514,241.028,1001.0534,240.3299,1002.0018,239.6784,1002.6798,238.7563,1003.5,237.9766,1003.5161,237.9926,1002.6925,237.169,1001.9421,236.4186,1001.1564,235.6329,1000.438,234.9146,999.5,233.9766" style="stroke: #383838; stroke-width: 1.0;" />
        <path d="M744.5,237.9766 L744.5,238.2568 L754.5385,237.4241 L764.5769,238.2343 L774.6154,238.5095 L784.6538,237.0254 L794.6923,237.8729 L804.7308,237.4079 L814.7692,237.4652 L824.8077,237.8857 L834.8462,237.0547 L844.8846,238.7148 L854.9231,237.1362 L864.9615,237.7129 L875,238.5525 L885.0385,237.8622 L895.0769,238.0675 L905.1154,237.934 L915.1538,238.2146 L925.1923,238.2954 L935.2308,238.7575 L945.2692,238.8713 L955.3077,238.8822 L965.3462,238.3161 L975.3846,238.5947 L985.4231,238.9129 L995.4615,237.015 L1005.5,237.9766 " fill="none" style="stroke: #383838; stroke-width: 1.0;" /><text fill="#000000" font-family="FG Virgil" font-size="13" lengthAdjust="spacingAndGlyphs" textLength="243" x="751.5" y="233.1201">addTipoEquipa(cor,codAlfanum,descricao)</text>
        <polygon fill="#383838" points="1158.5,264.3281,1158.526,264.3932,1160.4487,264.9999,1162.5239,265.9879,1164.5495,266.8518,1166.4117,267.3073,1168.5,268.3281,1168.4904,268.3041,1166.4472,268.9961,1164.4525,269.8094,1162.4916,270.707,1160.4144,271.3142,1158.5,272.3281,1158.6305,272.4586,1159.1514,271.3796,1160.0534,270.6815,1161.0018,270.0299,1161.6798,269.1079,1162.5,268.3281,1162.5161,268.3442,1161.6925,267.5206,1160.9421,266.7702,1160.1564,265.9845,1159.438,265.2662,1158.5,264.3281" style="stroke: #383838; stroke-width: 1.0;" />
        <path d="M744.5,268.3281 L744.5,268.6084 L754.5,267.7757 L764.5,268.5858 L774.5,268.861 L784.5,267.3769 L794.5,268.2245 L804.5,267.7595 L814.5,267.8168 L824.5,268.2372 L834.5,267.4063 L844.5,269.0663 L854.5,267.4878 L864.5,268.0644 L874.5,268.9041 L884.5,268.2138 L894.5,268.4191 L904.5,268.2855 L914.5,268.5662 L924.5,268.647 L934.5,269.109 L944.5,269.2229 L954.5,269.2338 L964.5,268.6676 L974.5,268.9462 L984.5,269.2644 L994.5,267.3665 L1004.5,269.2328 L1014.5,267.9328 L1024.5,269.0399 L1034.5,267.6681 L1044.5,268.2368 L1054.5,269.3169 L1064.5,268.2631 L1074.5,268.4685 L1084.5,268.7796 L1094.5,268.8831 L1104.5,268.3229 L1114.5,268.7111 L1124.5,267.5649 L1134.5,268.7073 L1144.5,269.0591 L1154.5,268.9208 L1164.5,268.3281 " fill="none" style="stroke: #383838; stroke-width: 1.0;" /><text fill="#000000" font-family="FG Virgil" font-size="13" lengthAdjust="spacingAndGlyphs" textLength="98" x="751.5" y="263.4717">save(TipoEquipa)</text>
        <polygon fill="#383838" points="483.5,294.6797,483.526,294.7447,481.4487,295.3515,479.5239,296.3395,477.5495,297.2034,475.4117,297.6589,473.5,298.6797,473.4904,298.6556,475.4472,299.3477,477.4525,300.161,479.4916,301.0586,481.4144,301.6657,483.5,302.6797,483.6305,302.8102,482.5514,301.7311,481.8534,301.0331,481.2018,300.3815,480.2798,299.4595,479.5,298.6797,479.5161,298.6958,480.2925,297.8722,481.1421,297.1218,481.9564,296.3361,482.838,295.6177,483.5,294.6797" style="stroke: #383838; stroke-width: 1.0;" />
        <path d="M477.5,298.6797 L477.5,298.9599 L487.5385,298.1273 L497.5769,298.9374 L507.6154,299.2126 L517.6538,297.7285 L527.6923,298.5761 L537.7308,298.111 L547.7692,298.1684 L557.8077,298.5888 L567.8462,297.7579 L577.8846,299.4179 L587.9231,297.8393 L597.9615,298.416 L608,299.2556 L618.0385,298.5653 L628.0769,298.7707 L638.1154,298.6371 L648.1538,298.9177 L658.1923,298.9985 L668.2308,299.4606 L678.2692,299.5744 L688.3077,299.5854 L698.3462,299.0192 L708.3846,299.2978 L718.4231,299.616 L728.4615,297.7181 L738.5,298.6797 " fill="none" style="stroke: #383838; stroke-width: 1.0;" /><text fill="#000000" font-family="FG Virgil" font-size="13" lengthAdjust="spacingAndGlyphs" textLength="64" x="489.5" y="293.8232">TipoEquipa</text>
        <polygon fill="#383838" points="36.5,325.0313,36.526,325.0963,34.4487,325.703,32.5239,326.6911,30.5495,327.5549,28.4117,328.0105,26.5,329.0313,26.4904,329.0072,28.4472,329.6993,30.4525,330.5126,32.4916,331.4102,34.4144,332.0173,36.5,333.0313,36.6305,333.1617,35.5514,332.0827,34.8534,331.3846,34.2018,330.7331,33.2798,329.811,32.5,329.0313,32.5161,329.0473,33.2925,328.2237,34.1421,327.4733,34.9564,326.6876,35.838,325.9693,36.5,325.0313" style="stroke: #383838; stroke-width: 1.0;" />
        <path d="M30.5,329.0313 L30.5,329.3115 L40.4091,328.4788 L50.3182,329.289 L60.2273,329.5642 L70.1364,328.0801 L80.0455,328.9276 L89.9545,328.4626 L99.8636,328.5199 L109.7727,328.9404 L119.6818,328.1094 L129.5909,329.7694 L139.5,328.1909 L149.4091,328.7676 L159.3182,329.6072 L169.2273,328.9169 L179.1364,329.1222 L189.0455,328.9887 L198.9545,329.2693 L208.8636,329.3501 L218.7727,329.8122 L228.6818,329.926 L238.5909,329.9369 L248.5,329.3708 L258.4091,329.6494 L268.3182,329.9676 L278.2273,328.0697 L288.1364,329.9359 L298.0455,328.6359 L307.9545,329.743 L317.8636,328.3712 L327.7727,328.9399 L337.6818,330.0201 L347.5909,328.9663 L357.5,329.1717 L367.4091,329.4828 L377.3182,329.5862 L387.2273,329.026 L397.1364,329.4142 L407.0455,328.268 L416.9545,329.4104 L426.8636,329.7622 L436.7727,329.624 L446.6818,329.8486 L456.5909,328.3871 L466.5,329.0313 " fill="none" style="stroke: #383838; stroke-width: 1.0; stroke-dasharray: 2.0,2.0;" /><text fill="#000000" font-family="FG Virgil" font-size="13" lengthAdjust="spacingAndGlyphs" textLength="104" x="42.5" y="324.1748">apresenta o menu</text>
        <!--
@startuml
skinparam handwritten true
skinparam monochrome true
skinparam packageStyle rect
skinparam defaultFontName FG Virgil
skinparam shadowing false

actor RRH as Actor
participant AddTipoEquipaUI as UI <<presentation>>
control AddTipoEquipaController as Controller <<application>>
participant "tipoEquipa:tipoEquipa" as Domain <<domain>>
database TipoEquipaRepository as Repository <<repository>>

-> UI: doShow()
activate UI

    UI - -> Actor: Pede ao utilizador que insira a cor ,o código alfanumérico e a descrição
    Actor - -> UI: Insere os dados

    UI -> Controller: addTipoEquipa(cor,codAlfanum,descricao)
    activate Controller
        Controller -> Domain:addTipoEquipa(cor,codAlfanum,descricao)

        Controller->Repository:save(TipoEquipa)
        Controller->UI: TipoEquipa
    deactivate Controller

        UI- ->Actor: apresenta o menu
deactivate UI
@enduml

PlantUML version 1.2018.14(Fri Dec 21 16:33:16 WET 2018)
(GPL source distribution)
Java Runtime: Java(TM) SE Runtime Environment
JVM: Java HotSpot(TM) 64-Bit Server VM
Java Version: 15.0.1+9-18
Operating System: Windows 10
OS Version: 10.0
Default Encoding: Cp1252
Language: pt
Country: PT
-->
    </g>
</svg>