<?xml version="1.0" encoding="UTF-8" standalone="no"?><svg xmlns="http://www.w3.org/2000/svg" xmlns:xlink="http://www.w3.org/1999/xlink" contentScriptType="application/ecmascript" contentStyleType="text/css" height="1261px" preserveAspectRatio="none" style="width:1190px;height:1261px;" version="1.1" viewBox="0 0 1190 1261" width="1190px" zoomAndPan="magnify"><defs><filter height="300%" id="f9qt9in6wqr6u" width="300%" x="-1" y="-1"><feGaussianBlur result="blurOut" stdDeviation="2.0"/><feColorMatrix in="blurOut" result="blurOut2" type="matrix" values="0 0 0 0 0 0 0 0 0 0 0 0 0 0 0 0 0 0 .4 0"/><feOffset dx="4.0" dy="4.0" in="blurOut2" result="blurOut3"/><feBlend in="SourceGraphic" in2="blurOut3" mode="normal"/></filter></defs><g><ellipse cx="896.0728" cy="840.3146" fill="#FEFECE" filter="url(#f9qt9in6wqr6u)" rx="127.0728" ry="27.8146" style="stroke: #A80036; stroke-width: 1.5;"/><text fill="#000000" font-family="sans-serif" font-size="14" lengthAdjust="spacingAndGlyphs" textLength="232" x="780.0728" y="845.6193">USDEMO1 - Especificar Colaborador</text><ellipse cx="896.0214" cy="935.3043" fill="#FEFECE" filter="url(#f9qt9in6wqr6u)" rx="144.5214" ry="31.3043" style="stroke: #A80036; stroke-width: 1.5;"/><text fill="#000000" font-family="sans-serif" font-size="14" lengthAdjust="spacingAndGlyphs" textLength="269" x="761.5214" y="940.609">USDEMO2 - Registar Novo Tipo de Equipa</text><ellipse cx="895.9781" cy="1026.3956" fill="#FEFECE" filter="url(#f9qt9in6wqr6u)" rx="109.9781" ry="24.3956" style="stroke: #A80036; stroke-width: 1.5;"/><text fill="#000000" font-family="sans-serif" font-size="14" lengthAdjust="spacingAndGlyphs" textLength="195" x="798.4781" y="1031.7003">USDEMO3 - Criar Nova Equipa</text><ellipse cx="896.1231" cy="397.4246" fill="#FEFECE" filter="url(#f9qt9in6wqr6u)" rx="152.6231" ry="32.9246" style="stroke: #A80036; stroke-width: 1.5;"/><text fill="#000000" font-family="sans-serif" font-size="14" lengthAdjust="spacingAndGlyphs" textLength="286" x="753.1231" y="402.7293">USDEMO4 - Criar Novo Catálogo de Serviços</text><ellipse cx="895.9447" cy="493.6889" fill="#FEFECE" filter="url(#f9qt9in6wqr6u)" rx="128.9447" ry="28.1889" style="stroke: #A80036; stroke-width: 1.5;"/><text fill="#000000" font-family="sans-serif" font-size="14" lengthAdjust="spacingAndGlyphs" textLength="236" x="777.9447" y="498.9936">USDEMO5 - Especificar Novo Serviço</text><ellipse cx="895.8283" cy="1118.5657" fill="#FEFECE" filter="url(#f9qt9in6wqr6u)" rx="148.3283" ry="32.0657" style="stroke: #A80036; stroke-width: 1.5;"/><text fill="#000000" font-family="sans-serif" font-size="14" lengthAdjust="spacingAndGlyphs" textLength="277" x="757.3283" y="1123.8703">USDEMO6 - Associar Colaborador a Equipa</text><ellipse cx="895.7585" cy="1218.3517" fill="#FEFECE" filter="url(#f9qt9in6wqr6u)" rx="149.7585" ry="32.3517" style="stroke: #A80036; stroke-width: 1.5;"/><text fill="#000000" font-family="sans-serif" font-size="14" lengthAdjust="spacingAndGlyphs" textLength="280" x="755.7585" y="1223.6564">USDEMO7 - Remover Colaborador a Equipa</text><ellipse cx="895.8771" cy="75.3754" fill="#FEFECE" filter="url(#f9qt9in6wqr6u)" rx="254.8771" ry="53.3754" style="stroke: #A80036; stroke-width: 1.5;"/><text fill="#000000" font-family="sans-serif" font-size="14" lengthAdjust="spacingAndGlyphs" textLength="496" x="647.8771" y="80.6801">USDEMO8 - Consultar/Pesquisar Catálogos e Respetivos Serviços Disponíveis</text><ellipse cx="895.9703" cy="615.6941" fill="#FEFECE" filter="url(#f9qt9in6wqr6u)" rx="283.9703" ry="59.1941" style="stroke: #A80036; stroke-width: 1.5;"/><text fill="#000000" font-family="sans-serif" font-size="14" lengthAdjust="spacingAndGlyphs" textLength="555" x="618.4703" y="620.9987">USDEMO9 - Definir Níveis de Criticidade e Respetivos Objetivos para Definição de SLAs</text><ellipse cx="895.9296" cy="743.2859" fill="#FEFECE" filter="url(#f9qt9in6wqr6u)" rx="156.9296" ry="33.7859" style="stroke: #A80036; stroke-width: 1.5;"/><text fill="#000000" font-family="sans-serif" font-size="14" lengthAdjust="spacingAndGlyphs" textLength="295" x="748.4296" y="748.5906">USDEMO10 - Continuar a especificar o serviço</text><ellipse cx="279.1117" cy="65.5223" fill="#FEFECE" filter="url(#f9qt9in6wqr6u)" rx="273.1117" ry="57.0223" style="stroke: #A80036; stroke-width: 1.5;"/><text fill="#000000" font-family="sans-serif" font-size="14" lengthAdjust="spacingAndGlyphs" textLength="533" x="12.6117" y="70.827">US1006 - Desenvolvimento da componente representativa de uma tarefa automática</text><ellipse cx="895.9639" cy="200.5928" fill="#FEFECE" filter="url(#f9qt9in6wqr6u)" rx="168.4639" ry="36.0928" style="stroke: #A80036; stroke-width: 1.5;"/><text fill="#000000" font-family="sans-serif" font-size="14" lengthAdjust="spacingAndGlyphs" textLength="319" x="736.4639" y="205.8975">US3021 - Consultar tarefas pendentes assignadas</text><ellipse cx="895.8204" cy="300.5641" fill="#FEFECE" filter="url(#f9qt9in6wqr6u)" rx="130.8204" ry="28.5641" style="stroke: #A80036; stroke-width: 1.5;"/><text fill="#000000" font-family="sans-serif" font-size="14" lengthAdjust="spacingAndGlyphs" textLength="240" x="775.8204" y="305.8688">US3011 - Apresentar Dashboard Web</text><!--entity GSH--><ellipse cx="279" cy="522" fill="#FEFECE" filter="url(#f9qt9in6wqr6u)" rx="8" ry="8" style="stroke: #A80036; stroke-width: 2.0;"/><path d="M279,530 L279,557 M266,538 L292,538 M279,557 L266,572 M279,557 L292,572 " fill="none" filter="url(#f9qt9in6wqr6u)" style="stroke: #A80036; stroke-width: 2.0;"/><text fill="#000000" font-family="sans-serif" font-size="14" lengthAdjust="spacingAndGlyphs" textLength="250" x="154" y="593.5332">Gestor de Serviços de Help desk (GSH)</text><!--entity RRH--><ellipse cx="279" cy="994" fill="#FEFECE" filter="url(#f9qt9in6wqr6u)" rx="8" ry="8" style="stroke: #A80036; stroke-width: 2.0;"/><path d="M279,1002 L279,1029 M266,1010 L292,1010 M279,1029 L266,1044 M279,1029 L292,1044 " fill="none" filter="url(#f9qt9in6wqr6u)" style="stroke: #A80036; stroke-width: 2.0;"/><text fill="#000000" font-family="sans-serif" font-size="14" lengthAdjust="spacingAndGlyphs" textLength="272" x="143" y="1065.5332">Responsável de Recursos Humanos (RRH)</text><!--entity COL--><ellipse cx="279" cy="168" fill="#FEFECE" filter="url(#f9qt9in6wqr6u)" rx="8" ry="8" style="stroke: #A80036; stroke-width: 2.0;"/><path d="M279,176 L279,203 M266,184 L292,184 M279,203 L266,218 M279,203 L292,218 " fill="none" filter="url(#f9qt9in6wqr6u)" style="stroke: #A80036; stroke-width: 2.0;"/><text fill="#000000" font-family="sans-serif" font-size="14" lengthAdjust="spacingAndGlyphs" textLength="79" x="239.5" y="239.5332">Colaborador</text><!--link RRH to USDEMO1--><path d="M365.329,983.856 C431.207,952.586 525.433,911.402 612,886.5 C664.955,871.267 725.029,860.607 776.163,853.413 " fill="none" id="RRH-USDEMO1" style="stroke: #A80036; stroke-width: 1.0;"/><polygon fill="#A80036" points="781.399,852.684,771.9332,849.9641,776.4468,853.3739,773.037,857.8876,781.399,852.684" style="stroke: #A80036; stroke-width: 1.0;"/><!--link RRH to USDEMO2--><path d="M415.345,1006.473 C521.42,990.778 667.822,969.115 770.899,953.863 " fill="none" id="RRH-USDEMO2" style="stroke: #A80036; stroke-width: 1.0;"/><polygon fill="#A80036" points="776.082,953.096,766.5936,950.4557,771.1358,953.8275,767.764,958.3697,776.082,953.096" style="stroke: #A80036; stroke-width: 1.0;"/><!--link RRH to USDEMO3--><path d="M415.345,1026.5 C524.724,1026.5 676.981,1026.5 780.403,1026.5 " fill="none" id="RRH-USDEMO3" style="stroke: #A80036; stroke-width: 1.0;"/><polygon fill="#A80036" points="785.598,1026.5,776.598,1022.5,780.598,1026.5,776.598,1030.5,785.598,1026.5" style="stroke: #A80036; stroke-width: 1.0;"/><!--link GSH to USDEMO4--><path d="M400.329,511.893 C462.896,490.81 540.951,466.164 612,448.5 C661.767,436.127 717.161,425.472 765.653,417.149 " fill="none" id="GSH-USDEMO4" style="stroke: #A80036; stroke-width: 1.0;"/><polygon fill="#A80036" points="770.624,416.3,761.0792,413.8717,765.6953,417.1414,762.4255,421.7576,770.624,416.3" style="stroke: #A80036; stroke-width: 1.0;"/><!--link GSH to USDEMO5--><path d="M404.084,542.192 C511.674,531.521 666.472,516.167 773.344,505.567 " fill="none" id="GSH-USDEMO5" style="stroke: #A80036; stroke-width: 1.0;"/><polygon fill="#A80036" points="778.396,505.066,769.0455,501.9726,773.4203,505.5589,769.8341,509.9337,778.396,505.066" style="stroke: #A80036; stroke-width: 1.0;"/><!--link RRH to USDEMO6--><path d="M415.345,1046.747 C520.551,1062.485 665.424,1084.157 768.356,1099.555 " fill="none" id="RRH-USDEMO6" style="stroke: #A80036; stroke-width: 1.0;"/><polygon fill="#A80036" points="773.533,1100.329,765.2242,1095.0409,768.5881,1099.5889,764.0401,1102.9528,773.533,1100.329" style="stroke: #A80036; stroke-width: 1.0;"/><!--link RRH to USDEMO7--><path d="M364.673,1069.13 C430.597,1100.73 525.183,1142.638 612,1168.5 C659.75,1182.7242 713.31,1193.4594 760.881,1201.2632 " fill="none" id="RRH-USDEMO7" style="stroke: #A80036; stroke-width: 1.0;"/><polygon fill="#A80036" points="766.057,1202.1046,757.816,1196.7114,761.1219,1201.3018,756.5315,1204.6076,766.057,1202.1046" style="stroke: #A80036; stroke-width: 1.0;"/><!--link COL to USDEMO8--><path d="M318.938,192.59 C395.45,177.03 569.878,141.58 706.88,113.74 " fill="none" id="COL-USDEMO8" style="stroke: #A80036; stroke-width: 1.0;"/><polygon fill="#A80036" points="712.146,112.67,702.5297,110.5423,707.2461,113.6657,704.1228,118.3821,712.146,112.67" style="stroke: #A80036; stroke-width: 1.0;"/><!--link GSH to USDEMO9--><path d="M404.084,566.808 C470.262,573.372 554.301,581.707 634.062,589.618 " fill="none" id="GSH-USDEMO9" style="stroke: #A80036; stroke-width: 1.0;"/><polygon fill="#A80036" points="639.309,590.139,630.7471,585.2713,634.3333,589.6461,629.9585,593.2324,639.309,590.139" style="stroke: #A80036; stroke-width: 1.0;"/><!--link GSH to USDEMO10--><path d="M367.593,597.022 C433.464,627.481 526.668,667.396 612,692.5 C658.557,706.196 710.561,716.845 757.163,724.785 " fill="none" id="GSH-USDEMO10" style="stroke: #A80036; stroke-width: 1.0;"/><polygon fill="#A80036" points="762.236,725.642,754.0278,720.1991,757.3058,724.8094,752.6956,728.0874,762.236,725.642" style="stroke: #A80036; stroke-width: 1.0;"/><!--link COL to US3021--><path d="M318.938,200.5 C398.318,200.5 583.09,200.5 722.119,200.5 " fill="none" id="COL-US3021" style="stroke: #A80036; stroke-width: 1.0;"/><polygon fill="#A80036" points="727.459,200.5,718.459,196.5,722.459,200.5,718.459,204.5,727.459,200.5" style="stroke: #A80036; stroke-width: 1.0;"/><!--link COL to US3011--><path d="M318.938,206.83 C411.157,221.83 645.617,259.95 785.349,282.671 " fill="none" id="COL-US3011" style="stroke: #A80036; stroke-width: 1.0;"/><polygon fill="#A80036" points="790.692,283.539,782.4494,278.1482,785.7566,282.7376,781.1673,286.0448,790.692,283.539" style="stroke: #A80036; stroke-width: 1.0;"/><!--
@startuml

usecase USDEMO1 as "USDEMO1 - Especificar Colaborador"
usecase USDEMO2 as "USDEMO2 - Registar Novo Tipo de Equipa"
usecase USDEMO3 as "USDEMO3 - Criar Nova Equipa"
usecase USDEMO4 as "USDEMO4 - Criar Novo Catálogo de Serviços"
usecase USDEMO5 as "USDEMO5 - Especificar Novo Serviço"
usecase USDEMO6 as "USDEMO6 - Associar Colaborador a Equipa"
usecase USDEMO7 as "USDEMO7 - Remover Colaborador a Equipa"
usecase USDEMO8 as "USDEMO8 - Consultar/Pesquisar Catálogos e Respetivos Serviços Disponíveis"
usecase USDEMO9 as "USDEMO9 - Definir Níveis de Criticidade e Respetivos Objetivos para Definição de SLAs"
usecase USDEMO10 as "USDEMO10 - Continuar a especificar o serviço"
usecase US1006 as "US1006 - Desenvolvimento da componente representativa de uma tarefa automática"
usecase US3021 as "US3021 - Consultar tarefas pendentes assignadas"
usecase US3011 as "US3011 - Apresentar Dashboard Web"

actor "Gestor de Serviços de Help desk (GSH)" as GSH
actor "Responsável de Recursos Humanos (RRH)" as RRH
actor "Colaborador" as COL

left to right direction

RRH - ->(USDEMO1)
RRH - ->(USDEMO2)
RRH - ->(USDEMO3)
GSH - ->(USDEMO4)
GSH - ->(USDEMO5)
RRH - ->(USDEMO6)
RRH - ->(USDEMO7)
COL - ->(USDEMO8)
GSH - ->(USDEMO9)
GSH - ->(USDEMO10)
COL - ->(US3021)
COL - ->(US3011)

@enduml

PlantUML version 1.2018.14(Fri Dec 21 16:33:16 GMT 2018)
(GPL source distribution)
Java Runtime: Java(TM) SE Runtime Environment
JVM: Java HotSpot(TM) 64-Bit Server VM
Java Version: 1.8.0_221-b11
Operating System: Windows 10
OS Version: 10.0
Default Encoding: Cp1252
Language: pt
Country: PT
--></g></svg>