<?xml version="1.0" encoding="UTF-8" standalone="no"?><svg xmlns="http://www.w3.org/2000/svg" xmlns:xlink="http://www.w3.org/1999/xlink" contentScriptType="application/ecmascript" contentStyleType="text/css" height="374px" preserveAspectRatio="none" style="width:467px;height:374px;" version="1.1" viewBox="0 0 467 374" width="467px" zoomAndPan="magnify"><defs><filter height="300%" id="fwfy5p4sqasr3" width="300%" x="-1" y="-1"><feGaussianBlur result="blurOut" stdDeviation="2.0"/><feColorMatrix in="blurOut" result="blurOut2" type="matrix" values="0 0 0 0 0 0 0 0 0 0 0 0 0 0 0 0 0 0 .4 0"/><feOffset dx="4.0" dy="4.0" in="blurOut2" result="blurOut3"/><feBlend in="SourceGraphic" in2="blurOut3" mode="normal"/></filter></defs><g><!--class AddTeamUI--><rect fill="#FEFECE" filter="url(#fwfy5p4sqasr3)" height="61.8359" id="AddTeamUI" style="stroke: #A80036; stroke-width: 1.5;" width="97" x="314.5" y="8"/><ellipse cx="329.5" cy="24" fill="#ADD1B2" rx="11" ry="11" style="stroke: #A80036; stroke-width: 1.0;"/><path d="M332.2656,19.875 Q332.4219,19.6563 332.6094,19.5469 Q332.7969,19.4375 333.0156,19.4375 Q333.3906,19.4375 333.625,19.6953 Q333.8594,19.9531 333.8594,20.5625 L333.8594,22.0156 Q333.8594,22.625 333.625,22.8906 Q333.3906,23.1563 333.0156,23.1563 Q332.6719,23.1563 332.4688,22.9531 Q332.2656,22.7656 332.1563,22.25 Q332.1094,21.8906 331.9219,21.7031 Q331.5938,21.3281 330.9844,21.1094 Q330.375,20.8906 329.75,20.8906 Q328.9844,20.8906 328.3516,21.2188 Q327.7188,21.5469 327.2266,22.2969 Q326.7344,23.0469 326.7344,24.0781 L326.7344,25.1719 Q326.7344,26.4063 327.625,27.2266 Q328.5156,28.0469 330.1094,28.0469 Q331.0469,28.0469 331.7031,27.7969 Q332.0938,27.6406 332.5156,27.2031 Q332.7813,26.9375 332.9297,26.8594 Q333.0781,26.7813 333.2813,26.7813 Q333.6094,26.7813 333.8672,27.0391 Q334.125,27.2969 334.125,27.6406 Q334.125,27.9844 333.7813,28.3906 Q333.2813,28.9688 332.4844,29.2969 Q331.4063,29.75 330.1094,29.75 Q328.5938,29.75 327.3906,29.125 Q326.4063,28.625 325.7188,27.5547 Q325.0313,26.4844 325.0313,25.2031 L325.0313,24.0469 Q325.0313,22.7188 325.6484,21.5703 Q326.2656,20.4219 327.3594,19.8047 Q328.4531,19.1875 329.6875,19.1875 Q330.4219,19.1875 331.0703,19.3516 Q331.7188,19.5156 332.2656,19.875 Z "/><text fill="#000000" font-family="sans-serif" font-size="12" lengthAdjust="spacingAndGlyphs" textLength="65" x="343.5" y="28.9102">AddTeamUI</text><line style="stroke: #A80036; stroke-width: 1.5;" x1="315.5" x2="410.5" y1="40" y2="40"/><line style="stroke: #A80036; stroke-width: 1.5;" x1="315.5" x2="410.5" y1="48" y2="48"/><ellipse cx="325.5" cy="60.418" fill="#84BE84" rx="3" ry="3" style="stroke: #038048; stroke-width: 1.0;"/><text fill="#000000" font-family="sans-serif" font-size="11" lengthAdjust="spacingAndGlyphs" textLength="49" x="334.5" y="63.4189">doShow()</text><!--class AddTeamController--><rect fill="#FEFECE" filter="url(#fwfy5p4sqasr3)" height="75.6719" id="AddTeamController" style="stroke: #A80036; stroke-width: 1.5;" width="376" x="6" y="148"/><ellipse cx="136.25" cy="164" fill="#ADD1B2" rx="11" ry="11" style="stroke: #A80036; stroke-width: 1.0;"/><path d="M139.0156,159.875 Q139.1719,159.6563 139.3594,159.5469 Q139.5469,159.4375 139.7656,159.4375 Q140.1406,159.4375 140.375,159.6953 Q140.6094,159.9531 140.6094,160.5625 L140.6094,162.0156 Q140.6094,162.625 140.375,162.8906 Q140.1406,163.1563 139.7656,163.1563 Q139.4219,163.1563 139.2188,162.9531 Q139.0156,162.7656 138.9063,162.25 Q138.8594,161.8906 138.6719,161.7031 Q138.3438,161.3281 137.7344,161.1094 Q137.125,160.8906 136.5,160.8906 Q135.7344,160.8906 135.1016,161.2188 Q134.4688,161.5469 133.9766,162.2969 Q133.4844,163.0469 133.4844,164.0781 L133.4844,165.1719 Q133.4844,166.4063 134.375,167.2266 Q135.2656,168.0469 136.8594,168.0469 Q137.7969,168.0469 138.4531,167.7969 Q138.8438,167.6406 139.2656,167.2031 Q139.5313,166.9375 139.6797,166.8594 Q139.8281,166.7813 140.0313,166.7813 Q140.3594,166.7813 140.6172,167.0391 Q140.875,167.2969 140.875,167.6406 Q140.875,167.9844 140.5313,168.3906 Q140.0313,168.9688 139.2344,169.2969 Q138.1563,169.75 136.8594,169.75 Q135.3438,169.75 134.1406,169.125 Q133.1563,168.625 132.4688,167.5547 Q131.7813,166.4844 131.7813,165.2031 L131.7813,164.0469 Q131.7813,162.7188 132.3984,161.5703 Q133.0156,160.4219 134.1094,159.8047 Q135.2031,159.1875 136.4375,159.1875 Q137.1719,159.1875 137.8203,159.3516 Q138.4688,159.5156 139.0156,159.875 Z "/><text fill="#000000" font-family="sans-serif" font-size="12" lengthAdjust="spacingAndGlyphs" textLength="107" x="156.75" y="168.9102">AddTeamController</text><line style="stroke: #A80036; stroke-width: 1.5;" x1="7" x2="381" y1="180" y2="180"/><line style="stroke: #A80036; stroke-width: 1.5;" x1="7" x2="381" y1="188" y2="188"/><ellipse cx="17" cy="207.3359" fill="#84BE84" rx="3" ry="3" style="stroke: #038048; stroke-width: 1.0;"/><text fill="#000000" font-family="sans-serif" font-size="11" lengthAdjust="spacingAndGlyphs" textLength="350" x="26" y="203.4189">addTeam(String codigoAlfaNumerico, String acronym, String designation,</text><text fill="#000000" font-family="sans-serif" font-size="11" lengthAdjust="spacingAndGlyphs" textLength="339" x="29" y="217.2549">TipoEquipa teamType, List&lt;Collaborator&gt; listR, List&lt;Collaborator&gt; listM)</text><!--class Team--><rect fill="#FEFECE" filter="url(#fwfy5p4sqasr3)" height="48" id="Team" style="stroke: #A80036; stroke-width: 1.5;" width="64" x="333" y="309"/><ellipse cx="348" cy="325" fill="#ADD1B2" rx="11" ry="11" style="stroke: #A80036; stroke-width: 1.0;"/><path d="M350.7656,320.875 Q350.9219,320.6563 351.1094,320.5469 Q351.2969,320.4375 351.5156,320.4375 Q351.8906,320.4375 352.125,320.6953 Q352.3594,320.9531 352.3594,321.5625 L352.3594,323.0156 Q352.3594,323.625 352.125,323.8906 Q351.8906,324.1563 351.5156,324.1563 Q351.1719,324.1563 350.9688,323.9531 Q350.7656,323.7656 350.6563,323.25 Q350.6094,322.8906 350.4219,322.7031 Q350.0938,322.3281 349.4844,322.1094 Q348.875,321.8906 348.25,321.8906 Q347.4844,321.8906 346.8516,322.2188 Q346.2188,322.5469 345.7266,323.2969 Q345.2344,324.0469 345.2344,325.0781 L345.2344,326.1719 Q345.2344,327.4063 346.125,328.2266 Q347.0156,329.0469 348.6094,329.0469 Q349.5469,329.0469 350.2031,328.7969 Q350.5938,328.6406 351.0156,328.2031 Q351.2813,327.9375 351.4297,327.8594 Q351.5781,327.7813 351.7813,327.7813 Q352.1094,327.7813 352.3672,328.0391 Q352.625,328.2969 352.625,328.6406 Q352.625,328.9844 352.2813,329.3906 Q351.7813,329.9688 350.9844,330.2969 Q349.9063,330.75 348.6094,330.75 Q347.0938,330.75 345.8906,330.125 Q344.9063,329.625 344.2188,328.5547 Q343.5313,327.4844 343.5313,326.2031 L343.5313,325.0469 Q343.5313,323.7188 344.1484,322.5703 Q344.7656,321.4219 345.8594,320.8047 Q346.9531,320.1875 348.1875,320.1875 Q348.9219,320.1875 349.5703,320.3516 Q350.2188,320.5156 350.7656,320.875 Z "/><text fill="#000000" font-family="sans-serif" font-size="12" lengthAdjust="spacingAndGlyphs" textLength="32" x="362" y="329.9102">Team</text><line style="stroke: #A80036; stroke-width: 1.5;" x1="334" x2="396" y1="341" y2="341"/><line style="stroke: #A80036; stroke-width: 1.5;" x1="334" x2="396" y1="349" y2="349"/><!--class TeamRepository--><rect fill="#FEFECE" filter="url(#fwfy5p4sqasr3)" height="61.8359" id="TeamRepository" style="stroke: #A80036; stroke-width: 1.5;" width="123" x="132.5" y="302"/><ellipse cx="147.5" cy="318" fill="#ADD1B2" rx="11" ry="11" style="stroke: #A80036; stroke-width: 1.0;"/><path d="M150.2656,313.875 Q150.4219,313.6563 150.6094,313.5469 Q150.7969,313.4375 151.0156,313.4375 Q151.3906,313.4375 151.625,313.6953 Q151.8594,313.9531 151.8594,314.5625 L151.8594,316.0156 Q151.8594,316.625 151.625,316.8906 Q151.3906,317.1563 151.0156,317.1563 Q150.6719,317.1563 150.4688,316.9531 Q150.2656,316.7656 150.1563,316.25 Q150.1094,315.8906 149.9219,315.7031 Q149.5938,315.3281 148.9844,315.1094 Q148.375,314.8906 147.75,314.8906 Q146.9844,314.8906 146.3516,315.2188 Q145.7188,315.5469 145.2266,316.2969 Q144.7344,317.0469 144.7344,318.0781 L144.7344,319.1719 Q144.7344,320.4063 145.625,321.2266 Q146.5156,322.0469 148.1094,322.0469 Q149.0469,322.0469 149.7031,321.7969 Q150.0938,321.6406 150.5156,321.2031 Q150.7813,320.9375 150.9297,320.8594 Q151.0781,320.7813 151.2813,320.7813 Q151.6094,320.7813 151.8672,321.0391 Q152.125,321.2969 152.125,321.6406 Q152.125,321.9844 151.7813,322.3906 Q151.2813,322.9688 150.4844,323.2969 Q149.4063,323.75 148.1094,323.75 Q146.5938,323.75 145.3906,323.125 Q144.4063,322.625 143.7188,321.5547 Q143.0313,320.4844 143.0313,319.2031 L143.0313,318.0469 Q143.0313,316.7188 143.6484,315.5703 Q144.2656,314.4219 145.3594,313.8047 Q146.4531,313.1875 147.6875,313.1875 Q148.4219,313.1875 149.0703,313.3516 Q149.7188,313.5156 150.2656,313.875 Z "/><text fill="#000000" font-family="sans-serif" font-size="12" lengthAdjust="spacingAndGlyphs" textLength="91" x="161.5" y="322.9102">TeamRepository</text><line style="stroke: #A80036; stroke-width: 1.5;" x1="133.5" x2="254.5" y1="334" y2="334"/><line style="stroke: #A80036; stroke-width: 1.5;" x1="133.5" x2="254.5" y1="342" y2="342"/><ellipse cx="143.5" cy="354.418" fill="#84BE84" rx="3" ry="3" style="stroke: #038048; stroke-width: 1.0;"/><text fill="#000000" font-family="sans-serif" font-size="11" lengthAdjust="spacingAndGlyphs" textLength="58" x="152.5" y="357.4189">save(Team)</text><!--link AddTeamUI to AddTeamController--><path d="M327.983,70.044 C302.918,91.549 268.885,120.75 241.392,144.339 " fill="none" id="AddTeamUI-AddTeamController" style="stroke: #A80036; stroke-width: 1.0;"/><polygon fill="#A80036" points="237.384,147.777,246.819,144.9519,241.1786,144.521,241.6095,138.8806,237.384,147.777" style="stroke: #A80036; stroke-width: 1.0;"/><text fill="#000000" font-family="sans-serif" font-size="13" lengthAdjust="spacingAndGlyphs" textLength="73" x="290" y="114.4951">theController</text><!--link AddTeamUI to Team--><path d="M376.285,70.027 C384.955,91.32 395.474,120.825 400,148 C405.549,181.319 405.271,190.636 400,224 C395.568,252.054 385.035,282.7455 376.675,304.2157 " fill="none" id="AddTeamUI-Team" style="stroke: #A80036; stroke-width: 1.0;"/><polygon fill="#A80036" points="374.819,308.9238,381.8413,302.0182,376.6529,304.2723,374.3988,299.0839,374.819,308.9238" style="stroke: #A80036; stroke-width: 1.0;"/><text fill="#000000" font-family="sans-serif" font-size="13" lengthAdjust="spacingAndGlyphs" textLength="50" x="405" y="191.4951">theTeam</text><!--link AddTeamController to TeamRepository--><path d="M194,224.341 C194,246.559 194,274.5882 194,296.4772 " fill="none" id="AddTeamController-TeamRepository" style="stroke: #A80036; stroke-width: 1.0;"/><polygon fill="#A80036" points="194,301.617,198,292.617,194,296.617,190,292.617,194,301.617" style="stroke: #A80036; stroke-width: 1.0;"/><text fill="#000000" font-family="sans-serif" font-size="13" lengthAdjust="spacingAndGlyphs" textLength="25" x="195" y="268.4951">repo</text><!--link AddTeamController to Team--><path d="M238.037,224.341 C268.03,249.774 307.006,282.8234 333.818,305.5589 " fill="none" id="AddTeamController-Team" style="stroke: #A80036; stroke-width: 1.0;"/><polygon fill="#A80036" points="337.683,308.8364,333.4044,299.9655,333.869,305.6032,328.2313,306.0678,337.683,308.8364" style="stroke: #A80036; stroke-width: 1.0;"/><text fill="#000000" font-family="sans-serif" font-size="13" lengthAdjust="spacingAndGlyphs" textLength="50" x="291" y="268.4951">theTeam</text><!--
@startuml


class AddTeamUI {
      +doShow()
}

class AddTeamController {
    +addTeam(String codigoAlfaNumerico, String acronym, String designation,\n TipoEquipa teamType, List<Collaborator> listR, List<Collaborator> listM)
}

class Team {

}

class TeamRepository {
  +save(Team)
}


AddTeamUI  - -> AddTeamController : theController

AddTeamUI  - ->  Team : theTeam

AddTeamController  - ->  TeamRepository : repo

AddTeamController  - ->  Team : theTeam
@enduml

PlantUML version 1.2018.14(Fri Dec 21 16:33:16 GMT 2018)
(GPL source distribution)
Java Runtime: Java(TM) SE Runtime Environment
JVM: Java HotSpot(TM) 64-Bit Server VM
Java Version: 1.8.0_221-b11
Operating System: Windows 10
OS Version: 10.0
Default Encoding: Cp1252
Language: pt
Country: PT
--></g></svg>