<?xml version="1.0" encoding="UTF-8" standalone="no"?><svg xmlns="http://www.w3.org/2000/svg" xmlns:xlink="http://www.w3.org/1999/xlink" contentScriptType="application/ecmascript" contentStyleType="text/css" height="415px" preserveAspectRatio="none" style="width:483px;height:415px;" version="1.1" viewBox="0 0 483 415" width="483px" zoomAndPan="magnify"><defs><filter height="300%" id="f1pa2hbk1gvhd" width="300%" x="-1" y="-1"><feGaussianBlur result="blurOut" stdDeviation="2.0"/><feColorMatrix in="blurOut" result="blurOut2" type="matrix" values="0 0 0 0 0 0 0 0 0 0 0 0 0 0 0 0 0 0 .4 0"/><feOffset dx="4.0" dy="4.0" in="blurOut2" result="blurOut3"/><feBlend in="SourceGraphic" in2="blurOut3" mode="normal"/></filter></defs><g><!--class AddCollaboratorUI--><rect fill="#FEFECE" filter="url(#f1pa2hbk1gvhd)" height="61.8359" id="AddCollaboratorUI" style="stroke: #A80036; stroke-width: 1.5;" width="133" x="259" y="8"/><ellipse cx="274" cy="24" fill="#ADD1B2" rx="11" ry="11" style="stroke: #A80036; stroke-width: 1.0;"/><path d="M276.7656,19.875 Q276.9219,19.6563 277.1094,19.5469 Q277.2969,19.4375 277.5156,19.4375 Q277.8906,19.4375 278.125,19.6953 Q278.3594,19.9531 278.3594,20.5625 L278.3594,22.0156 Q278.3594,22.625 278.125,22.8906 Q277.8906,23.1563 277.5156,23.1563 Q277.1719,23.1563 276.9688,22.9531 Q276.7656,22.7656 276.6563,22.25 Q276.6094,21.8906 276.4219,21.7031 Q276.0938,21.3281 275.4844,21.1094 Q274.875,20.8906 274.25,20.8906 Q273.4844,20.8906 272.8516,21.2188 Q272.2188,21.5469 271.7266,22.2969 Q271.2344,23.0469 271.2344,24.0781 L271.2344,25.1719 Q271.2344,26.4063 272.125,27.2266 Q273.0156,28.0469 274.6094,28.0469 Q275.5469,28.0469 276.2031,27.7969 Q276.5938,27.6406 277.0156,27.2031 Q277.2813,26.9375 277.4297,26.8594 Q277.5781,26.7813 277.7813,26.7813 Q278.1094,26.7813 278.3672,27.0391 Q278.625,27.2969 278.625,27.6406 Q278.625,27.9844 278.2813,28.3906 Q277.7813,28.9688 276.9844,29.2969 Q275.9063,29.75 274.6094,29.75 Q273.0938,29.75 271.8906,29.125 Q270.9063,28.625 270.2188,27.5547 Q269.5313,26.4844 269.5313,25.2031 L269.5313,24.0469 Q269.5313,22.7188 270.1484,21.5703 Q270.7656,20.4219 271.8594,19.8047 Q272.9531,19.1875 274.1875,19.1875 Q274.9219,19.1875 275.5703,19.3516 Q276.2188,19.5156 276.7656,19.875 Z "/><text fill="#000000" font-family="sans-serif" font-size="12" lengthAdjust="spacingAndGlyphs" textLength="101" x="288" y="28.9102">AddCollaboratorUI</text><line style="stroke: #A80036; stroke-width: 1.5;" x1="260" x2="391" y1="40" y2="40"/><line style="stroke: #A80036; stroke-width: 1.5;" x1="260" x2="391" y1="48" y2="48"/><ellipse cx="270" cy="60.418" fill="#84BE84" rx="3" ry="3" style="stroke: #038048; stroke-width: 1.0;"/><text fill="#000000" font-family="sans-serif" font-size="11" lengthAdjust="spacingAndGlyphs" textLength="49" x="279" y="63.4189">doShow()</text><!--class AddCollaboratorController--><rect fill="#FEFECE" filter="url(#f1pa2hbk1gvhd)" height="117.1797" id="AddCollaboratorController" style="stroke: #A80036; stroke-width: 1.5;" width="333" x="6" y="148"/><ellipse cx="96.75" cy="164" fill="#ADD1B2" rx="11" ry="11" style="stroke: #A80036; stroke-width: 1.0;"/><path d="M99.5156,159.875 Q99.6719,159.6563 99.8594,159.5469 Q100.0469,159.4375 100.2656,159.4375 Q100.6406,159.4375 100.875,159.6953 Q101.1094,159.9531 101.1094,160.5625 L101.1094,162.0156 Q101.1094,162.625 100.875,162.8906 Q100.6406,163.1563 100.2656,163.1563 Q99.9219,163.1563 99.7188,162.9531 Q99.5156,162.7656 99.4063,162.25 Q99.3594,161.8906 99.1719,161.7031 Q98.8438,161.3281 98.2344,161.1094 Q97.625,160.8906 97,160.8906 Q96.2344,160.8906 95.6016,161.2188 Q94.9688,161.5469 94.4766,162.2969 Q93.9844,163.0469 93.9844,164.0781 L93.9844,165.1719 Q93.9844,166.4063 94.875,167.2266 Q95.7656,168.0469 97.3594,168.0469 Q98.2969,168.0469 98.9531,167.7969 Q99.3438,167.6406 99.7656,167.2031 Q100.0313,166.9375 100.1797,166.8594 Q100.3281,166.7813 100.5313,166.7813 Q100.8594,166.7813 101.1172,167.0391 Q101.375,167.2969 101.375,167.6406 Q101.375,167.9844 101.0313,168.3906 Q100.5313,168.9688 99.7344,169.2969 Q98.6563,169.75 97.3594,169.75 Q95.8438,169.75 94.6406,169.125 Q93.6563,168.625 92.9688,167.5547 Q92.2813,166.4844 92.2813,165.2031 L92.2813,164.0469 Q92.2813,162.7188 92.8984,161.5703 Q93.5156,160.4219 94.6094,159.8047 Q95.7031,159.1875 96.9375,159.1875 Q97.6719,159.1875 98.3203,159.3516 Q98.9688,159.5156 99.5156,159.875 Z "/><text fill="#000000" font-family="sans-serif" font-size="12" lengthAdjust="spacingAndGlyphs" textLength="143" x="117.25" y="168.9102">AddCollaboratorController</text><line style="stroke: #A80036; stroke-width: 1.5;" x1="7" x2="338" y1="180" y2="180"/><line style="stroke: #A80036; stroke-width: 1.5;" x1="7" x2="338" y1="188" y2="188"/><ellipse cx="17" cy="228.0898" fill="#84BE84" rx="3" ry="3" style="stroke: #038048; stroke-width: 1.0;"/><text fill="#000000" font-family="sans-serif" font-size="11" lengthAdjust="spacingAndGlyphs" textLength="268" x="26" y="203.4189">registerCollaborator(String username, String password,</text><text fill="#000000" font-family="sans-serif" font-size="11" lengthAdjust="spacingAndGlyphs" textLength="301" x="29" y="217.2549">String email, String mechanographicNumber, String shortName,</text><text fill="#000000" font-family="sans-serif" font-size="11" lengthAdjust="spacingAndGlyphs" textLength="265" x="29" y="231.0908">String longName, String phoneNumber, String birthDate,</text><text fill="#000000" font-family="sans-serif" font-size="11" lengthAdjust="spacingAndGlyphs" textLength="229" x="29" y="244.9268">String distrito, String concelho, Set&lt;Role&gt; roles,</text><text fill="#000000" font-family="sans-serif" font-size="11" lengthAdjust="spacingAndGlyphs" textLength="242" x="29" y="258.7627">Collaborator responsible, ArrayList&lt;Team&gt; teams)</text><!--class Collaborator--><rect fill="#FEFECE" filter="url(#f1pa2hbk1gvhd)" height="48" id="Collaborator" style="stroke: #A80036; stroke-width: 1.5;" width="100" x="323.5" y="350"/><ellipse cx="338.5" cy="366" fill="#ADD1B2" rx="11" ry="11" style="stroke: #A80036; stroke-width: 1.0;"/><path d="M341.2656,361.875 Q341.4219,361.6563 341.6094,361.5469 Q341.7969,361.4375 342.0156,361.4375 Q342.3906,361.4375 342.625,361.6953 Q342.8594,361.9531 342.8594,362.5625 L342.8594,364.0156 Q342.8594,364.625 342.625,364.8906 Q342.3906,365.1563 342.0156,365.1563 Q341.6719,365.1563 341.4688,364.9531 Q341.2656,364.7656 341.1563,364.25 Q341.1094,363.8906 340.9219,363.7031 Q340.5938,363.3281 339.9844,363.1094 Q339.375,362.8906 338.75,362.8906 Q337.9844,362.8906 337.3516,363.2188 Q336.7188,363.5469 336.2266,364.2969 Q335.7344,365.0469 335.7344,366.0781 L335.7344,367.1719 Q335.7344,368.4063 336.625,369.2266 Q337.5156,370.0469 339.1094,370.0469 Q340.0469,370.0469 340.7031,369.7969 Q341.0938,369.6406 341.5156,369.2031 Q341.7813,368.9375 341.9297,368.8594 Q342.0781,368.7813 342.2813,368.7813 Q342.6094,368.7813 342.8672,369.0391 Q343.125,369.2969 343.125,369.6406 Q343.125,369.9844 342.7813,370.3906 Q342.2813,370.9688 341.4844,371.2969 Q340.4063,371.75 339.1094,371.75 Q337.5938,371.75 336.3906,371.125 Q335.4063,370.625 334.7188,369.5547 Q334.0313,368.4844 334.0313,367.2031 L334.0313,366.0469 Q334.0313,364.7188 334.6484,363.5703 Q335.2656,362.4219 336.3594,361.8047 Q337.4531,361.1875 338.6875,361.1875 Q339.4219,361.1875 340.0703,361.3516 Q340.7188,361.5156 341.2656,361.875 Z "/><text fill="#000000" font-family="sans-serif" font-size="12" lengthAdjust="spacingAndGlyphs" textLength="68" x="352.5" y="370.9102">Collaborator</text><line style="stroke: #A80036; stroke-width: 1.5;" x1="324.5" x2="422.5" y1="382" y2="382"/><line style="stroke: #A80036; stroke-width: 1.5;" x1="324.5" x2="422.5" y1="390" y2="390"/><!--class CollaboratorRepository--><rect fill="#FEFECE" filter="url(#f1pa2hbk1gvhd)" height="61.8359" id="CollaboratorRepository" style="stroke: #A80036; stroke-width: 1.5;" width="159" x="93" y="343"/><ellipse cx="108" cy="359" fill="#ADD1B2" rx="11" ry="11" style="stroke: #A80036; stroke-width: 1.0;"/><path d="M110.7656,354.875 Q110.9219,354.6563 111.1094,354.5469 Q111.2969,354.4375 111.5156,354.4375 Q111.8906,354.4375 112.125,354.6953 Q112.3594,354.9531 112.3594,355.5625 L112.3594,357.0156 Q112.3594,357.625 112.125,357.8906 Q111.8906,358.1563 111.5156,358.1563 Q111.1719,358.1563 110.9688,357.9531 Q110.7656,357.7656 110.6563,357.25 Q110.6094,356.8906 110.4219,356.7031 Q110.0938,356.3281 109.4844,356.1094 Q108.875,355.8906 108.25,355.8906 Q107.4844,355.8906 106.8516,356.2188 Q106.2188,356.5469 105.7266,357.2969 Q105.2344,358.0469 105.2344,359.0781 L105.2344,360.1719 Q105.2344,361.4063 106.125,362.2266 Q107.0156,363.0469 108.6094,363.0469 Q109.5469,363.0469 110.2031,362.7969 Q110.5938,362.6406 111.0156,362.2031 Q111.2813,361.9375 111.4297,361.8594 Q111.5781,361.7813 111.7813,361.7813 Q112.1094,361.7813 112.3672,362.0391 Q112.625,362.2969 112.625,362.6406 Q112.625,362.9844 112.2813,363.3906 Q111.7813,363.9688 110.9844,364.2969 Q109.9063,364.75 108.6094,364.75 Q107.0938,364.75 105.8906,364.125 Q104.9063,363.625 104.2188,362.5547 Q103.5313,361.4844 103.5313,360.2031 L103.5313,359.0469 Q103.5313,357.7188 104.1484,356.5703 Q104.7656,355.4219 105.8594,354.8047 Q106.9531,354.1875 108.1875,354.1875 Q108.9219,354.1875 109.5703,354.3516 Q110.2188,354.5156 110.7656,354.875 Z "/><text fill="#000000" font-family="sans-serif" font-size="12" lengthAdjust="spacingAndGlyphs" textLength="127" x="122" y="363.9102">CollaboratorRepository</text><line style="stroke: #A80036; stroke-width: 1.5;" x1="94" x2="251" y1="375" y2="375"/><line style="stroke: #A80036; stroke-width: 1.5;" x1="94" x2="251" y1="383" y2="383"/><ellipse cx="104" cy="395.418" fill="#84BE84" rx="3" ry="3" style="stroke: #038048; stroke-width: 1.0;"/><text fill="#000000" font-family="sans-serif" font-size="11" lengthAdjust="spacingAndGlyphs" textLength="90" x="113" y="398.4189">save(Collaborator)</text><!--link AddCollaboratorUI to AddCollaboratorController--><path d="M297.437,70.355 C278.361,90.99 252.459,119.009 229.184,144.185 " fill="none" id="AddCollaboratorUI-AddCollaboratorController" style="stroke: #A80036; stroke-width: 1.0;"/><polygon fill="#A80036" points="225.77,147.877,234.8168,143.9839,229.1642,144.2056,228.9425,138.5531,225.77,147.877" style="stroke: #A80036; stroke-width: 1.0;"/><text fill="#000000" font-family="sans-serif" font-size="13" lengthAdjust="spacingAndGlyphs" textLength="73" x="268.5" y="114.4951">theController</text><!--link AddCollaboratorUI to Collaborator--><path d="M339.465,70.078 C343.453,79.509 347.52,90.055 350.5,100 C375.822,184.5 379.242,207.174 387.5,295 C389.074,311.7368 385.956,330.266 382.266,345.0638 " fill="none" id="AddCollaboratorUI-Collaborator" style="stroke: #A80036; stroke-width: 1.0;"/><polygon fill="#A80036" points="380.999,349.9312,387.1375,342.2293,382.2587,345.0925,379.3956,340.2137,380.999,349.9312" style="stroke: #A80036; stroke-width: 1.0;"/><text fill="#000000" font-family="sans-serif" font-size="13" lengthAdjust="spacingAndGlyphs" textLength="87" x="384.5" y="211.9951">theCollaborator</text><!--link AddCollaboratorController to CollaboratorRepository--><path d="M172.5,265.384 C172.5,289.445 172.5,316.5975 172.5,337.6091 " fill="none" id="AddCollaboratorController-CollaboratorRepository" style="stroke: #A80036; stroke-width: 1.0;"/><polygon fill="#A80036" points="172.5,342.8132,176.5,333.8132,172.5,337.8132,168.5,333.8132,172.5,342.8132" style="stroke: #A80036; stroke-width: 1.0;"/><text fill="#000000" font-family="sans-serif" font-size="13" lengthAdjust="spacingAndGlyphs" textLength="25" x="173.5" y="309.4951">repo</text><!--link AddCollaboratorController to Collaborator--><path d="M237.699,265.217 C255.888,280.951 275.794,297.834 294.5,313 C308.442,324.304 324.126,336.3483 337.822,346.6566 " fill="none" id="AddCollaboratorController-Collaborator" style="stroke: #A80036; stroke-width: 1.0;"/><polygon fill="#A80036" points="342.004,349.7972,337.2097,341.194,338.006,346.7945,332.4055,347.5908,342.004,349.7972" style="stroke: #A80036; stroke-width: 1.0;"/><text fill="#000000" font-family="sans-serif" font-size="13" lengthAdjust="spacingAndGlyphs" textLength="87" x="295.5" y="309.4951">theCollaborator</text><!--
@startuml


class AddCollaboratorUI {
      +doShow()
}

class AddCollaboratorController {
    +registerCollaborator(String username, String password, \n String email, String mechanographicNumber, String shortName, \n String longName, String phoneNumber, String birthDate, \n String distrito, String concelho, Set<Role> roles, \n Collaborator responsible, ArrayList<Team> teams)
}

class Collaborator {

}

class CollaboratorRepository {
  +save(Collaborator)
}


AddCollaboratorUI  - -> AddCollaboratorController : theController

AddCollaboratorUI  - ->  Collaborator : theCollaborator

AddCollaboratorController  - ->  CollaboratorRepository : repo

AddCollaboratorController  - ->  Collaborator : theCollaborator
@enduml

PlantUML version 1.2018.14(Fri Dec 21 16:33:16 GMT 2018)
(GPL source distribution)
Java Runtime: Java(TM) SE Runtime Environment
JVM: Java HotSpot(TM) 64-Bit Server VM
Java Version: 1.8.0_221-b11
Operating System: Windows 10
OS Version: 10.0
Default Encoding: Cp1252
Language: pt
Country: PT
--></g></svg>